<svg width="558" height="451" viewBox="0 0 558 451" fill="none" xmlns="http://www.w3.org/2000/svg">
<path d="M159.927 305.2C168.327 299.333 176.327 294.333 183.927 290.2C191.527 286.067 199.46 281.933 207.727 277.8C208.26 275.4 207.993 272.6 206.927 269.4C205.86 266.2 203.593 263.733 200.127 262C196.66 260.267 191.793 259.733 185.527 260.4C179.393 261.067 171.46 264 161.727 269.2C163.06 269.2 164.46 269.533 165.927 270.2C167.527 270.867 168.927 271.667 170.127 272.6C171.327 273.533 172.193 274.6 172.727 275.8C173.26 277 173.26 278.133 172.727 279.2C169.66 284.667 167.06 289.6 164.927 294C162.927 298.4 161.26 302.133 159.927 305.2ZM207.127 294.2C204.727 295.267 200.793 297.267 195.327 300.2C189.86 303.133 183.993 306.533 177.727 310.4C171.593 314.267 165.727 318.267 160.127 322.4C154.527 326.533 150.46 330.267 147.927 333.6C144.193 342.267 140.993 351.267 138.327 360.6C135.66 369.8 133.593 377.733 132.127 384.4C131.727 386 130.593 387.133 128.727 387.8C126.86 388.333 124.86 388.467 122.727 388.2C120.727 387.933 118.927 387.333 117.327 386.4C115.727 385.467 114.927 384.2 114.927 382.6C114.927 381.8 115.193 380.4 115.727 378.4C116.26 376.4 116.86 374.067 117.527 371.4C118.327 368.733 119.193 366 120.127 363.2C121.06 360.4 121.927 357.8 122.727 355.4C117.927 359.267 113.26 364.067 108.727 369.8C104.327 375.533 100.727 381.133 97.9266 386.6C95.1266 391.933 93.4599 396.667 92.9266 400.8C92.5266 404.8 93.9266 407.2 97.1266 408C101.793 409.067 107.46 408.267 114.127 405.6C120.927 403.067 128.06 399.133 135.527 393.8C142.993 388.467 150.527 382 158.127 374.4C165.727 366.8 172.793 358.6 179.327 349.8C185.993 341 191.793 331.867 196.727 322.4C201.66 312.933 205.127 303.533 207.127 294.2ZM152.727 274.6C149.26 276.467 145.193 279.267 140.527 283C135.86 286.6 131.26 290.6 126.727 295C122.327 299.4 118.193 303.933 114.327 308.6C110.593 313.267 107.793 317.533 105.927 321.4C104.193 325.267 103.727 328.533 104.527 331.2C105.46 333.733 108.26 335.067 112.927 335.2C110.66 337.333 107.793 338.333 104.327 338.2C100.993 338.067 97.9266 337 95.1266 335C92.3266 333 90.2599 330.133 88.9266 326.4C87.5932 322.533 87.8599 318.067 89.7266 313C92.2599 306.467 96.4599 299.667 102.327 292.6C108.327 285.533 115.127 279 122.727 273C130.327 266.867 138.26 261.6 146.527 257.2C154.927 252.667 162.727 249.667 169.927 248.2C175.527 247 181.127 246.867 186.727 247.8C192.46 248.733 197.793 250.333 202.727 252.6C207.66 254.733 211.993 257.467 215.727 260.8C219.593 264.133 222.327 267.6 223.927 271.2C230.727 269.067 236.593 268.267 241.527 268.8C246.593 269.333 250.593 270.6 253.527 272.6C256.593 274.6 258.527 277.133 259.327 280.2C260.127 283.267 259.793 286.267 258.327 289.2C258.46 287.333 257.727 285.6 256.127 284C254.66 282.4 252.527 281.333 249.727 280.8C247.06 280.133 243.793 280.067 239.927 280.6C236.193 281.133 232.127 282.533 227.727 284.8C228.527 291.467 227.66 299.267 225.127 308.2C222.727 317 218.927 326.2 213.727 335.8C208.527 345.267 202.06 354.733 194.327 364.2C186.727 373.667 178.193 382.267 168.727 390C157.127 399.6 145.593 406.933 134.127 412C122.793 417.2 112.727 420.067 103.927 420.6C95.2599 421.133 88.4599 419.333 83.5266 415.2C78.7266 411.2 76.9266 404.867 78.1266 396.2C78.6599 392.333 79.8599 388 81.7266 383.2C83.7266 378.4 86.5266 373.133 90.1266 367.4C92.9266 362.867 95.9266 358.733 99.1266 355C102.46 351.133 105.927 347.533 109.527 344.2C113.127 340.733 116.86 337.333 120.727 334C124.727 330.667 128.727 327.267 132.727 323.8C133.127 322.867 133.86 321 134.927 318.2C136.127 315.267 137.593 311.6 139.327 307.2C141.193 302.8 143.26 297.867 145.527 292.4C147.793 286.8 150.193 280.867 152.727 274.6ZM268.553 333.2C269.22 332.267 270.02 331.8 270.953 331.8C271.886 331.667 272.686 331.8 273.353 332.2C274.153 332.6 274.753 333.133 275.153 333.8C275.686 334.467 275.753 335.133 275.353 335.8C273.886 338.867 271.753 342.867 268.953 347.8C266.153 352.733 263.086 357.667 259.753 362.6C256.42 367.533 252.953 372 249.353 376C245.886 380 242.753 382.6 239.953 383.8C238.22 384.467 236.22 384.667 233.953 384.4C231.686 384.133 229.553 383.533 227.553 382.6C225.553 381.533 223.886 380.2 222.553 378.6C221.22 376.867 220.62 374.933 220.753 372.8C220.886 370.133 221.486 366.6 222.553 362.2C223.486 357.667 224.82 352.933 226.553 348C228.153 342.933 229.953 338 231.953 333.2C233.953 328.267 236.02 324.067 238.153 320.6C238.82 319.533 240.153 319 242.153 319C244.286 319 246.353 319.4 248.353 320.2C250.353 321 252.02 322.067 253.353 323.4C254.686 324.733 255.02 326.133 254.353 327.6C248.086 339.6 243.82 349 241.553 355.8C239.286 362.467 238.553 366.8 239.353 368.8C239.886 370.267 241.02 370.467 242.753 369.4C244.486 368.2 246.62 366 249.153 362.8C251.82 359.6 254.82 355.467 258.153 350.4C261.486 345.333 264.953 339.6 268.553 333.2ZM255.953 312.2C255.153 313.267 253.953 313.867 252.353 314C250.886 314.133 249.353 314 247.753 313.6C246.286 313.067 244.953 312.333 243.753 311.4C242.686 310.467 242.22 309.467 242.353 308.4C242.62 306.533 243.02 304.6 243.553 302.6C244.22 300.467 244.886 298.533 245.553 296.8C246.22 294.933 246.886 293.267 247.553 291.8C248.22 290.333 248.753 289.2 249.153 288.4C249.953 287.2 251.42 286.6 253.553 286.6C255.686 286.467 257.753 286.8 259.753 287.6C261.886 288.4 263.62 289.467 264.953 290.8C266.286 292.133 266.553 293.467 265.753 294.8C265.353 295.6 264.686 296.8 263.753 298.4C262.953 299.867 262.086 301.467 261.153 303.2C260.22 304.8 259.286 306.4 258.353 308C257.42 309.6 256.62 311 255.953 312.2ZM372.909 299.4C381.043 303.267 387.376 307.667 391.909 312.6C396.309 317.8 397.709 325.333 396.109 335.2C395.576 337.6 394.776 340.6 393.709 344.2C392.643 347.667 391.309 351.733 389.709 356.4C388.109 360.8 386.576 365.267 385.109 369.8C383.776 374.2 382.376 378.733 380.909 383.4C379.709 388.067 378.776 392.4 378.109 396.4C377.443 400.267 377.109 403.933 377.109 407.4C377.109 413.667 379.643 417.133 384.709 417.8C382.843 420.733 379.709 421.667 375.309 420.6C370.643 419.533 366.576 416.667 363.109 412C359.376 407.6 358.109 401.4 359.309 393.4C360.509 388.333 361.976 382.933 363.709 377.2C365.576 371.333 367.776 365.2 370.309 358.8C371.776 354.8 373.043 351.133 374.109 347.8C375.176 344.467 376.109 341.467 376.909 338.8C379.043 331.6 379.443 325.6 378.109 320.8C376.643 316.267 372.643 312.667 366.109 310C365.843 322.933 361.843 337.867 354.109 354.8C345.976 372 337.043 383.8 327.309 390.2C324.776 391.4 321.243 391.6 316.709 390.8C312.576 389.6 308.643 387.733 304.909 385.2C301.309 382.8 299.176 379.867 298.509 376.4C297.709 371.333 298.376 364.667 300.509 356.4C299.443 357.867 298.243 359.4 296.909 361C295.709 362.6 294.376 364.4 292.909 366.4C287.309 374.267 281.109 381.6 274.309 388.4C272.576 389.867 269.909 390.2 266.309 389.4C262.843 388.6 259.643 387.067 256.709 384.8C253.909 382.667 252.509 380.2 252.509 377.4C253.176 372.067 254.509 366.667 256.509 361.2C258.376 355.6 260.843 349.867 263.909 344C269.776 332.667 276.576 323.733 284.309 317.2C288.309 314 292.109 312.867 295.709 313.8C299.309 314.867 302.776 316.667 306.109 319.2C307.576 320 308.909 320.867 310.109 321.8C310.376 321.267 310.643 320.733 310.909 320.2C311.309 319.667 311.776 319.067 312.309 318.4L314.709 314.8C315.643 313.467 316.376 312.6 316.909 312.2C318.643 310.467 320.909 310.2 323.709 311.4C326.376 312.2 328.776 313.733 330.909 316C332.909 318 333.376 320.067 332.309 322.2C324.043 336.2 319.043 348.133 317.309 358C315.709 368 315.843 373.867 317.709 375.6C320.109 377.2 323.776 374.8 328.709 368.4C331.243 365.467 333.643 362.067 335.909 358.2C338.176 354.333 340.443 350.067 342.709 345.4C344.976 340.6 346.709 335.933 347.909 331.4C349.243 326.867 350.243 322.467 350.909 318.2C351.443 309.667 348.909 303.6 343.309 300C341.443 299.067 340.909 297.333 341.709 294.8C341.976 293.6 342.443 292.4 343.109 291.2C343.776 290 344.643 288.867 345.709 287.8C347.843 285.133 349.909 283.467 351.909 282.8C354.309 281.733 356.109 282.133 357.309 284C357.976 284.667 358.509 285.333 358.909 286C359.309 286.533 359.643 287.133 359.909 287.8C361.109 289.8 362.509 291.6 364.109 293.2C364.909 294 366.043 294.933 367.509 296C368.976 296.933 370.776 298.067 372.909 299.4ZM299.909 335.6C300.176 335.333 300.443 334.333 300.709 332.6C300.709 331.267 300.509 330.067 300.109 329C299.709 327.667 299.109 326.933 298.309 326.8C297.243 326.667 295.976 327.333 294.509 328.8C288.243 335.467 283.176 343.067 279.309 351.6C277.043 355.867 275.376 359.533 274.309 362.6C273.376 365.533 272.776 367.933 272.509 369.8C275.709 366.867 280.176 361.8 285.909 354.6C288.709 351 291.243 347.6 293.509 344.4C295.909 341.2 298.043 338.267 299.909 335.6ZM488.725 334.8C490.058 334.133 491.058 334.2 491.725 335C492.392 335.667 492.658 336.733 492.525 338.2C492.525 339.533 492.125 341.067 491.325 342.8C490.525 344.533 489.258 346 487.525 347.2C482.325 350.4 477.458 353.6 472.925 356.8C468.525 359.867 464.258 363.133 460.125 366.6C458.258 368.067 456.858 369.733 455.925 371.6C453.258 377.067 450.125 383.133 446.525 389.8C442.925 396.467 438.992 402.8 434.725 408.8C430.458 414.933 425.992 420.4 421.325 425.2C416.658 430 412.058 433.267 407.525 435C405.792 435.667 403.392 435.6 400.325 434.8C397.258 434.133 394.525 432.8 392.125 430.8C389.592 428.933 387.858 426.467 386.925 423.4C385.858 420.467 386.525 417.067 388.925 413.2C391.992 408.267 396.192 403.2 401.525 398C406.858 392.667 412.192 387.733 417.525 383.2C422.992 378.667 427.792 374.667 431.925 371.2C436.192 367.733 438.658 365.333 439.325 364C439.992 362.667 440.725 361 441.525 359C442.458 356.867 443.325 354.733 444.125 352.6C444.925 350.333 445.725 348.2 446.525 346.2C447.325 344.067 447.925 342.267 448.325 340.8C446.325 344.133 443.992 347.533 441.325 351C438.792 354.333 436.192 357.533 433.525 360.6C430.858 363.667 428.125 366.467 425.325 369C422.658 371.533 420.125 373.6 417.725 375.2C416.258 376.133 414.325 376.4 411.925 376C409.525 375.6 407.258 374.8 405.125 373.6C402.858 372.4 400.992 370.933 399.525 369.2C398.058 367.333 397.525 365.467 397.925 363.6C398.592 360.267 399.658 356.467 401.125 352.2C402.458 347.8 404.058 343.4 405.925 339C407.792 334.467 409.925 330.133 412.325 326C414.725 321.867 417.258 318.2 419.925 315C420.858 313.933 422.325 313.533 424.325 313.8C426.458 314.067 428.458 314.733 430.325 315.8C432.325 316.733 433.858 317.933 434.925 319.4C435.992 320.867 435.925 322.267 434.725 323.6C433.125 325.467 431.125 328.4 428.725 332.4C426.458 336.4 424.392 340.4 422.525 344.4C420.658 348.4 419.258 351.867 418.325 354.8C417.525 357.733 417.725 359.067 418.925 358.8C420.125 358.533 421.858 357.133 424.125 354.6C426.392 352.067 428.925 348.933 431.725 345.2C434.525 341.467 437.458 337.4 440.525 333C443.592 328.467 446.458 324.133 449.125 320C451.792 315.867 454.125 312.2 456.125 309C458.258 305.667 459.725 303.267 460.525 301.8C461.325 300.6 462.658 300.067 464.525 300.2C466.392 300.2 468.325 300.667 470.325 301.6C472.325 302.4 473.992 303.467 475.325 304.8C476.792 306.133 477.392 307.4 477.125 308.6C476.725 311.4 475.992 314.667 474.925 318.4C473.992 322.133 472.925 326 471.725 330C470.525 333.867 469.392 337.6 468.325 341.2C467.258 344.667 466.392 347.6 465.725 350C470.658 346.4 474.792 343.533 478.125 341.4C481.458 339.133 484.992 336.933 488.725 334.8ZM398.525 422.8C400.658 421.2 402.925 419.2 405.325 416.8C407.725 414.533 410.058 412 412.325 409.2C414.725 406.4 416.992 403.533 419.125 400.6C421.258 397.667 423.125 394.8 424.725 392C422.325 394.267 419.592 396.933 416.525 400C413.592 402.933 410.792 405.867 408.125 408.8C405.592 411.733 403.392 414.467 401.525 417C399.658 419.533 398.658 421.467 398.525 422.8Z" fill="black"/>
<path d="M316.6 223.4C313 226.467 309 228.133 304.6 228.4C300.2 228.8 296.2 227.733 292.6 225.2C289 222.8 286.133 219.067 284 214C281.867 208.933 281.267 202.533 282.2 194.8C283 188 284.2 180.8 285.8 173.2C287.4 165.6 289.067 158.333 290.8 151.4C292.533 144.333 294.2 138.067 295.8 132.6C297.533 127 298.933 122.867 300 120.2C299.333 121.267 298.067 123.4 296.2 126.6C294.467 129.8 292.467 133.533 290.2 137.8C287.933 141.933 285.467 146.467 282.8 151.4C280.267 156.2 277.867 160.867 275.6 165.4C273.467 169.933 271.6 174.067 270 177.8C268.4 181.533 267.4 184.4 267 186.4C266.733 187.333 265.6 187.933 263.6 188.2C261.733 188.467 259.6 188.333 257.2 187.8C254.933 187.267 252.867 186.333 251 185C249.133 183.533 248.133 181.467 248 178.8C247.867 177.067 248 174.6 248.4 171.4C248.933 168.067 249.6 164.333 250.4 160.2C251.2 156.067 252.133 151.8 253.2 147.4C254.267 142.867 255.267 138.6 256.2 134.6C257.267 130.467 258.2 126.8 259 123.6C259.8 120.267 260.467 117.8 261 116.2C256.067 124.067 251.4 132.267 247 140.8C242.6 149.2 238.533 157.6 234.8 166C231.067 174.4 227.667 182.467 224.6 190.2C221.533 197.933 218.933 205 216.8 211.4C216.267 213 214.667 213.8 212 213.8C209.333 213.8 206.6 213.2 203.8 212C201.133 210.667 198.867 208.867 197 206.6C195.267 204.333 195 201.667 196.2 198.6C196.2 198.6 196.933 196.8 198.4 193.2C200 189.467 201.933 184.6 204.2 178.6C206.6 172.6 209.133 165.8 211.8 158.2C214.6 150.6 217.267 142.867 219.8 135C222.467 127 224.733 119.2 226.6 111.6C228.6 104 230 97.2667 230.8 91.4C231.6 85.4 231.533 80.6 230.6 77C229.8 73.4 227.867 71.6 224.8 71.6C221.6 71.7333 218.133 73.3333 214.4 76.4C210.667 79.4667 207 83.5333 203.4 88.6C199.8 93.5333 196.333 99.1333 193 105.4C189.8 111.667 187.067 118.067 184.8 124.6C182.667 131 181.133 137.267 180.2 143.4C179.4 149.4 179.533 154.6 180.6 159C181.533 162.467 183.533 164.8 186.6 166C189.8 167.067 193.2 166.467 196.8 164.2C196.267 166.2 194.8 167.933 192.4 169.4C190.133 170.733 187.467 171.6 184.4 172C181.467 172.267 178.4 172.067 175.2 171.4C172 170.6 169.2 169.067 166.8 166.8C164.4 164.4 162.6 161.2 161.4 157.2C160.333 153.2 160.4 148.133 161.6 142C163.333 133.2 166.2 124 170.2 114.4C174.333 104.8 179.267 96.0667 185 88.2C190.867 80.3333 197.333 73.8667 204.4 68.8C211.6 63.6 219.133 61 227 61C232.733 61 237.133 62.5333 240.2 65.6C243.4 68.5333 245.533 72.3333 246.6 77C247.667 81.5333 248 86.7333 247.6 92.6C247.2 98.3333 246.4 104.133 245.2 110C244 115.733 242.6 121.2 241 126.4C239.4 131.6 238 135.933 236.8 139.4C238.933 135.133 241.733 129.8 245.2 123.4C248.8 117 252.467 110.6 256.2 104.2C259.933 97.6667 263.467 91.6667 266.8 86.2C270.267 80.7333 273 76.7333 275 74.2C276.067 72.8667 277.733 72.4667 280 73C282.4 73.5333 284.667 74.6 286.8 76.2C289.067 77.8 290.867 79.6 292.2 81.6C293.533 83.6 293.8 85.2667 293 86.6C289.8 92.2 286.933 98.4 284.4 105.2C282 111.867 279.867 118.333 278 124.6C276.267 130.733 274.867 136.267 273.8 141.2C272.733 146 271.933 149.4 271.4 151.4C272.2 149.8 273.8 146.8 276.2 142.4C278.6 138 281.4 132.867 284.6 127C287.933 121 291.533 114.667 295.4 108C299.267 101.333 303.067 95.0667 306.8 89.2C310.533 83.2 314 77.8667 317.2 73.2C320.4 68.5333 323 65.2667 325 63.4C325.933 62.4667 327.4 62.3333 329.4 63C331.533 63.5333 333.6 64.4667 335.6 65.8C337.6 67 339.2 68.4667 340.4 70.2C341.733 71.8 342 73.2667 341.2 74.6C339.2 78.0667 336.8 82.9333 334 89.2C331.2 95.3333 328.267 102.333 325.2 110.2C322.133 118.067 319.067 126.467 316 135.4C313.067 144.2 310.467 152.933 308.2 161.6C305.933 170.133 304.133 178.333 302.8 186.2C301.6 193.933 301.2 200.733 301.6 206.6C302 212.333 303.333 216.733 305.6 219.8C308 223 311.667 224.2 316.6 223.4ZM408.452 145.8C409.785 145.133 410.785 145.2 411.452 146C412.118 146.667 412.385 147.733 412.252 149.2C412.252 150.533 411.852 152.067 411.052 153.8C410.252 155.533 408.985 157 407.252 158.2C402.052 161.4 397.185 164.6 392.652 167.8C388.252 170.867 383.985 174.133 379.852 177.6C377.985 179.067 376.585 180.733 375.652 182.6C372.985 188.067 369.852 194.133 366.252 200.8C362.652 207.467 358.718 213.8 354.452 219.8C350.185 225.933 345.718 231.4 341.052 236.2C336.385 241 331.785 244.267 327.252 246C325.518 246.667 323.118 246.6 320.052 245.8C316.985 245.133 314.252 243.8 311.852 241.8C309.318 239.933 307.585 237.467 306.652 234.4C305.585 231.467 306.252 228.067 308.652 224.2C311.718 219.267 315.918 214.2 321.252 209C326.585 203.667 331.918 198.733 337.252 194.2C342.718 189.667 347.518 185.667 351.652 182.2C355.918 178.733 358.385 176.333 359.052 175C359.718 173.667 360.452 172 361.252 170C362.185 167.867 363.052 165.733 363.852 163.6C364.652 161.333 365.452 159.2 366.252 157.2C367.052 155.067 367.652 153.267 368.052 151.8C366.052 155.133 363.718 158.533 361.052 162C358.518 165.333 355.918 168.533 353.252 171.6C350.585 174.667 347.852 177.467 345.052 180C342.385 182.533 339.852 184.6 337.452 186.2C335.985 187.133 334.052 187.4 331.652 187C329.252 186.6 326.985 185.8 324.852 184.6C322.585 183.4 320.718 181.933 319.252 180.2C317.785 178.333 317.252 176.467 317.652 174.6C318.318 171.267 319.385 167.467 320.852 163.2C322.185 158.8 323.785 154.4 325.652 150C327.518 145.467 329.652 141.133 332.052 137C334.452 132.867 336.985 129.2 339.652 126C340.585 124.933 342.052 124.533 344.052 124.8C346.185 125.067 348.185 125.733 350.052 126.8C352.052 127.733 353.585 128.933 354.652 130.4C355.718 131.867 355.652 133.267 354.452 134.6C352.852 136.467 350.852 139.4 348.452 143.4C346.185 147.4 344.118 151.4 342.252 155.4C340.385 159.4 338.985 162.867 338.052 165.8C337.252 168.733 337.452 170.067 338.652 169.8C339.852 169.533 341.585 168.133 343.852 165.6C346.118 163.067 348.652 159.933 351.452 156.2C354.252 152.467 357.185 148.4 360.252 144C363.318 139.467 366.185 135.133 368.852 131C371.518 126.867 373.852 123.2 375.852 120C377.985 116.667 379.452 114.267 380.252 112.8C381.052 111.6 382.385 111.067 384.252 111.2C386.118 111.2 388.052 111.667 390.052 112.6C392.052 113.4 393.718 114.467 395.052 115.8C396.518 117.133 397.118 118.4 396.852 119.6C396.452 122.4 395.718 125.667 394.652 129.4C393.718 133.133 392.652 137 391.452 141C390.252 144.867 389.118 148.6 388.052 152.2C386.985 155.667 386.118 158.6 385.452 161C390.385 157.4 394.518 154.533 397.852 152.4C401.185 150.133 404.718 147.933 408.452 145.8ZM318.252 233.8C320.385 232.2 322.652 230.2 325.052 227.8C327.452 225.533 329.785 223 332.052 220.2C334.452 217.4 336.718 214.533 338.852 211.6C340.985 208.667 342.852 205.8 344.452 203C342.052 205.267 339.318 207.933 336.252 211C333.318 213.933 330.518 216.867 327.852 219.8C325.318 222.733 323.118 225.467 321.252 228C319.385 230.533 318.385 232.467 318.252 233.8Z" fill="black"/>
</svg>
