<svg width="20" height="20" viewBox="0 0 20 20" fill="none" xmlns="http://www.w3.org/2000/svg">
<path d="M17.6202 0.725001H2.39016C1.76331 0.719661 1.15987 0.962892 0.71194 1.40145C0.264009 1.84001 0.00807619 2.43817 0.000163768 3.065V5.185C-0.00577738 5.69156 0.150069 6.18679 0.445029 6.59866C0.739988 7.01052 1.15867 7.31753 1.64016 7.475V15.335C1.64082 15.8552 1.74556 16.3701 1.94821 16.8492C2.15086 17.3284 2.44733 17.7622 2.82016 18.125C3.57421 18.8676 4.59184 19.2811 5.65016 19.275H14.3602C15.4185 19.2811 16.4361 18.8676 17.1902 18.125C17.563 17.7622 17.8595 17.3284 18.0621 16.8492C18.2648 16.3701 18.3695 15.8552 18.3702 15.335V7.475C18.8417 7.31846 19.2523 7.0183 19.5447 6.6166C19.837 6.21489 19.9962 5.73179 20.0002 5.235V3.115C20.004 2.80091 19.9452 2.48921 19.8271 2.19815C19.709 1.90709 19.534 1.64252 19.3123 1.41995C19.0907 1.19737 18.8268 1.02126 18.5363 0.90193C18.2457 0.7826 17.9343 0.722449 17.6202 0.725001ZM12.8302 13.395L10.8302 15.395C10.7174 15.5051 10.5852 15.5933 10.4402 15.655C10.3413 15.6968 10.2369 15.7237 10.1302 15.735H9.83016C9.73087 15.719 9.63363 15.6921 9.54016 15.655C9.39381 15.5958 9.2611 15.5073 9.15016 15.395L7.15016 13.395C7.01768 13.2528 6.94556 13.0648 6.94899 12.8705C6.95242 12.6762 7.03113 12.4908 7.16854 12.3534C7.30595 12.216 7.49134 12.1373 7.68564 12.1338C7.87994 12.1304 8.06799 12.2025 8.21016 12.335L9.21016 13.335V9.975C9.21016 9.87651 9.22956 9.77898 9.26725 9.68799C9.30495 9.59699 9.36019 9.51431 9.42983 9.44467C9.49948 9.37503 9.58216 9.31978 9.67315 9.28209C9.76415 9.2444 9.86167 9.225 9.96016 9.225C10.0587 9.225 10.1562 9.2444 10.2472 9.28209C10.3382 9.31978 10.4208 9.37503 10.4905 9.44467C10.5601 9.51431 10.6154 9.59699 10.6531 9.68799C10.6908 9.77898 10.7102 9.87651 10.7102 9.975V13.345L11.7102 12.345C11.8523 12.2125 12.0404 12.1404 12.2347 12.1438C12.429 12.1473 12.6144 12.226 12.7518 12.3634C12.8892 12.5008 12.9679 12.6862 12.9713 12.8805C12.9748 13.0748 12.9026 13.2628 12.7702 13.405L12.8302 13.395ZM18.5002 5.185C18.4987 5.29876 18.4748 5.4111 18.4297 5.51555C18.3846 5.61999 18.3192 5.71446 18.2374 5.7935C18.1556 5.87253 18.0589 5.93457 17.953 5.97602C17.847 6.01747 17.7339 6.03752 17.6202 6.035H2.39016C2.27591 6.03766 2.16224 6.01778 2.05567 5.97649C1.9491 5.93521 1.85171 5.87333 1.76906 5.79439C1.68641 5.71546 1.62012 5.62101 1.57398 5.51645C1.52784 5.41189 1.50276 5.29926 1.50016 5.185V3.065C1.50274 2.95119 1.52789 2.83902 1.57415 2.735C1.62041 2.63098 1.68686 2.53718 1.76965 2.45904C1.85244 2.3809 1.94992 2.31998 2.05644 2.2798C2.16296 2.23963 2.27639 2.221 2.39016 2.225H17.6202C17.7335 2.22099 17.8464 2.23968 17.9523 2.27998C18.0583 2.32027 18.1551 2.38135 18.2371 2.45962C18.3191 2.53789 18.3846 2.63177 18.4298 2.73573C18.475 2.8397 18.4989 2.95165 18.5002 3.065V5.185Z" fill="#F8F8F8"/>
</svg>
