<svg width="24" height="20" viewBox="0 0 24 20" fill="none" xmlns="http://www.w3.org/2000/svg">
<path d="M16.5373 0H6.98174C6.98174 0 5.78654 0 5.78654 1.2H17.7325C17.7325 0 16.5373 0 16.5373 0ZM20.1217 3.6C20.1217 2.4 18.9277 2.4 18.9277 2.4H4.59254C4.59254 2.4 3.39854 2.4 3.39854 3.6V4.8H20.1217V3.6ZM22.5097 4.8L21.8041 4.0896V6H1.71614V4.0896L1.00934 4.8C0.302544 5.5104 -0.203856 5.7 0.0805439 7.2C0.363744 8.6952 1.73534 16.8912 1.93934 18C2.16254 19.2168 3.39974 19.2 3.39974 19.2H20.1229C20.1229 19.2 21.3589 19.2168 21.5833 18C21.7873 16.8912 23.1577 8.6952 23.4421 7.2C23.7241 5.7 23.2177 5.5104 22.5097 4.8ZM16.5601 11.9964C16.5601 12.6612 16.0213 13.2 15.3565 13.2H8.16374C7.84453 13.2 7.53839 13.0732 7.31267 12.8475C7.08695 12.6218 6.96014 12.3156 6.96014 11.9964V9.6H8.16014V12H15.3601V9.6H16.5601V11.9964Z" fill="#F8F8F8"/>
</svg>
