<svg width="20" height="20" viewBox="0 0 20 20" fill="none" xmlns="http://www.w3.org/2000/svg">
<path d="M17 1H13C12.4696 1 11.9609 1.21071 11.5858 1.58579C11.2107 1.96086 11 2.46957 11 3V15C11 16.0609 11.4214 17.0783 12.1716 17.8284C12.9217 18.5786 13.9391 19 15 19C16.0609 19 17.0783 18.5786 17.8284 17.8284C18.5786 17.0783 19 16.0609 19 15V3C19 2.46957 18.7893 1.96086 18.4142 1.58579C18.0391 1.21071 17.5304 1 17 1Z" stroke="#F8F8F8" stroke-width="2" stroke-linecap="round" stroke-linejoin="round"/>
<path d="M11.0004 5.35001L9.00036 3.35001C8.62531 2.97507 8.11669 2.76443 7.58636 2.76443C7.05603 2.76443 6.54742 2.97507 6.17236 3.35001L3.34436 6.17801C2.96942 6.55306 2.75879 7.06168 2.75879 7.59201C2.75879 8.12234 2.96942 8.63095 3.34436 9.00601L12.3444 18.006" stroke="#F8F8F8" stroke-width="2" stroke-linecap="round" stroke-linejoin="round"/>
<path d="M5.3 11H3C2.46957 11 1.96086 11.2107 1.58579 11.5858C1.21071 11.9609 1 12.4696 1 13V17C1 17.5304 1.21071 18.0391 1.58579 18.4142C1.96086 18.7893 2.46957 19 3 19H15M15 15V15.01" stroke="#F8F8F8" stroke-width="2" stroke-linecap="round" stroke-linejoin="round"/>
</svg>
