<svg width="24" height="24" viewBox="0 0 24 24" fill="none" xmlns="http://www.w3.org/2000/svg">
<path d="M15.135 12.5C15.015 12.5 14.89 12.48 14.77 12.44C14.5446 12.3683 14.3481 12.2261 14.2095 12.0344C14.0709 11.8427 13.9974 11.6116 14 11.375V9.97C12.87 9.79 12 8.805 12 7.625V4.375C12 3.065 13.065 2 14.375 2H20.125C21.435 2 22.5 3.065 22.5 4.375V7.625C22.5 8.935 21.435 10 20.125 10H17.565L16.025 12.05C15.805 12.34 15.48 12.5 15.135 12.5ZM8 13.75C5.93 13.75 4.25 12.07 4.25 10C4.25 7.93 5.93 6.25 8 6.25C10.07 6.25 11.75 7.93 11.75 10C11.75 12.07 10.07 13.75 8 13.75ZM1.5 17.395C1.5 17.44 1.575 22 8 22C14.425 22 14.5 17.44 14.5 17.395V16.875C14.5 15.84 13.66 15 12.625 15H3.375C2.34 15 1.5 15.84 1.5 16.875V17.395Z" fill="#F8F8F8"/>
</svg>
