<svg width="24" height="24" viewBox="0 0 24 24" fill="none" xmlns="http://www.w3.org/2000/svg">
<path d="M22 13.438C22 17.208 22 19.094 20.828 20.266C19.657 21.438 17.771 21.438 14 21.438H10C6.229 21.438 4.343 21.438 3.172 20.266C2 19.094 2 17.209 2 13.438C2 9.66599 2 7.77999 3.172 6.60899C4.343 5.43799 6.229 5.43799 10 5.43799H14C17.771 5.43799 19.657 5.43799 20.828 6.60899C21.492 7.27299 21.78 8.16499 21.904 9.49999" stroke="#F8F8F8" stroke-width="1.5" stroke-linecap="round"/>
<path d="M3.98828 6C4.10028 5.069 4.33528 4.426 4.82528 3.937C5.76528 3 7.27928 3 10.3073 3H13.5183C16.5463 3 18.0593 3 19.0003 3.937C19.4903 4.426 19.7253 5.069 19.8373 6" stroke="#F8F8F8" stroke-width="1.5"/>
<path d="M17.5 11.438C18.3284 11.438 19 10.7664 19 9.93799C19 9.10956 18.3284 8.43799 17.5 8.43799C16.6716 8.43799 16 9.10956 16 9.93799C16 10.7664 16.6716 11.438 17.5 11.438Z" stroke="#F8F8F8" stroke-width="1.5"/>
<path d="M2 13.938L3.752 12.405C4.19114 12.0211 4.75974 11.8183 5.34272 11.8378C5.9257 11.8573 6.47949 12.0976 6.892 12.51L11.182 16.8C11.515 17.1327 11.9547 17.3372 12.4237 17.3777C12.8927 17.4181 13.361 17.2918 13.746 17.021L14.045 16.811C14.6007 16.4209 15.2723 16.2309 15.95 16.2719C16.6277 16.313 17.2714 16.5827 17.776 17.037L21 19.937" stroke="#F8F8F8" stroke-width="1.5" stroke-linecap="round"/>
</svg>
