<svg width="22" height="22" viewBox="0 0 22 22" fill="none" xmlns="http://www.w3.org/2000/svg">
<path d="M11 16C9.61667 16 8.43767 15.5123 7.463 14.537C6.48834 13.5617 6.00067 12.3827 6 11C5.99934 9.61734 6.487 8.43834 7.463 7.463C8.439 6.48767 9.618 6 11 6C12.382 6 13.5613 6.48767 14.538 7.463C15.5147 8.43834 16.002 9.61734 16 11C15.998 12.3827 15.5103 13.562 14.537 14.538C13.5637 15.514 12.3847 16.0013 11 16ZM1 12C0.71667 12 0.479337 11.904 0.288003 11.712C0.0966701 11.52 0.000670115 11.2827 3.44828e-06 11C-0.000663218 10.7173 0.0953368 10.48 0.288003 10.288C0.48067 10.096 0.718003 10 1 10H3C3.28334 10 3.521 10.096 3.713 10.288C3.905 10.48 4.00067 10.7173 4 11C3.99934 11.2827 3.90334 11.5203 3.712 11.713C3.52067 11.9057 3.28334 12.0013 3 12H1ZM19 12C18.7167 12 18.4793 11.904 18.288 11.712C18.0967 11.52 18.0007 11.2827 18 11C17.9993 10.7173 18.0953 10.48 18.288 10.288C18.4807 10.096 18.718 10 19 10H21C21.2833 10 21.521 10.096 21.713 10.288C21.905 10.48 22.0007 10.7173 22 11C21.9993 11.2827 21.9033 11.5203 21.712 11.713C21.5207 11.9057 21.2833 12.0013 21 12H19ZM11 4C10.7167 4 10.4793 3.904 10.288 3.712C10.0967 3.52 10.0007 3.28267 10 3V1C10 0.71667 10.096 0.479337 10.288 0.288003C10.48 0.0966701 10.7173 0.000670115 11 3.44828e-06C11.2827 -0.000663218 11.5203 0.0953368 11.713 0.288003C11.9057 0.48067 12.0013 0.718003 12 1V3C12 3.28334 11.904 3.521 11.712 3.713C11.52 3.905 11.2827 4.00067 11 4ZM11 22C10.7167 22 10.4793 21.904 10.288 21.712C10.0967 21.52 10.0007 21.2827 10 21V19C10 18.7167 10.096 18.4793 10.288 18.288C10.48 18.0967 10.7173 18.0007 11 18C11.2827 17.9993 11.5203 18.0953 11.713 18.288C11.9057 18.4807 12.0013 18.718 12 19V21C12 21.2833 11.904 21.521 11.712 21.713C11.52 21.905 11.2827 22.0007 11 22ZM4.65 6.05L3.575 5C3.375 4.81667 3.279 4.58334 3.287 4.3C3.295 4.01667 3.391 3.775 3.575 3.575C3.775 3.375 4.01667 3.275 4.3 3.275C4.58334 3.275 4.81667 3.375 5 3.575L6.05 4.65C6.23334 4.85 6.325 5.08334 6.325 5.35C6.325 5.61667 6.23334 5.85 6.05 6.05C5.86667 6.25 5.63767 6.346 5.363 6.338C5.08834 6.33 4.85067 6.234 4.65 6.05ZM17 18.425L15.95 17.35C15.7667 17.15 15.675 16.9127 15.675 16.638C15.675 16.3633 15.7667 16.134 15.95 15.95C16.1333 15.75 16.3627 15.6543 16.638 15.663C16.9133 15.6717 17.1507 15.7673 17.35 15.95L18.425 17C18.625 17.1833 18.721 17.4167 18.713 17.7C18.705 17.9833 18.609 18.225 18.425 18.425C18.225 18.625 17.9833 18.725 17.7 18.725C17.4167 18.725 17.1833 18.625 17 18.425ZM15.95 6.05C15.75 5.86667 15.654 5.63767 15.662 5.363C15.67 5.08834 15.766 4.85067 15.95 4.65L17 3.575C17.1833 3.375 17.4167 3.279 17.7 3.287C17.9833 3.295 18.225 3.391 18.425 3.575C18.625 3.775 18.725 4.01667 18.725 4.3C18.725 4.58334 18.625 4.81667 18.425 5L17.35 6.05C17.15 6.23334 16.9167 6.325 16.65 6.325C16.3833 6.325 16.15 6.23334 15.95 6.05ZM3.575 18.425C3.375 18.225 3.275 17.9833 3.275 17.7C3.275 17.4167 3.375 17.1833 3.575 17L4.65 15.95C4.85 15.7667 5.08734 15.675 5.362 15.675C5.63667 15.675 5.866 15.7667 6.05 15.95C6.25 16.1333 6.346 16.3627 6.338 16.638C6.33 16.9133 6.234 17.1507 6.05 17.35L5 18.425C4.81667 18.625 4.58334 18.721 4.3 18.713C4.01667 18.705 3.775 18.609 3.575 18.425Z" fill="#F8F8F8"/>
</svg>
