<svg width="20" height="20" viewBox="0 0 20 20" fill="none" xmlns="http://www.w3.org/2000/svg">
<path fill-rule="evenodd" clip-rule="evenodd" d="M9.535 1.51901C9.60969 1.35499 9.63868 1.17384 9.61888 0.994708C9.59908 0.815575 9.53124 0.645122 9.42254 0.501375C9.31383 0.357628 9.1683 0.24593 9.00133 0.178095C8.83436 0.11026 8.65216 0.088808 8.474 0.116009C3.675 0.852009 0 4.99601 0 10C0 15.523 4.477 20 10 20C15.523 20 20 15.523 20 10C19.9999 9.90666 19.9986 9.81332 19.996 9.72001C19.991 9.53972 19.9373 9.36413 19.8407 9.21184C19.7441 9.05956 19.608 8.93625 19.447 8.85498C19.286 8.7737 19.106 8.73749 18.9261 8.75017C18.7462 8.76285 18.573 8.82395 18.425 8.92701C17.3461 9.67838 16.0503 10.0546 14.7367 9.99776C13.4232 9.94094 12.1647 9.45425 11.1547 8.61252C10.1447 7.77079 9.4392 6.62062 9.14656 5.33885C8.85392 4.05708 8.99039 2.71466 9.535 1.51801" fill="#F8F8F8"/>
</svg>
