<svg width="18" height="22" viewBox="0 0 18 22" fill="none" xmlns="http://www.w3.org/2000/svg">
<path d="M9 11C10.3924 11 11.7277 10.4469 12.7123 9.46231C13.6969 8.47774 14.25 7.14239 14.25 5.75C14.25 4.35761 13.6969 3.02226 12.7123 2.03769C11.7277 1.05312 10.3924 0.5 9 0.5C7.60761 0.5 6.27226 1.05312 5.28769 2.03769C4.30312 3.02226 3.75 4.35761 3.75 5.75C3.75 7.14239 4.30312 8.47774 5.28769 9.46231C6.27226 10.4469 7.60761 11 9 11ZM2.625 12.5C1.92881 12.5 1.26113 12.7766 0.768845 13.2688C0.276562 13.7611 0 14.4288 0 15.125V15.5C0 17.2947 1.14225 18.8127 2.76375 19.8447C4.39425 20.8827 6.6015 21.5 9 21.5C11.3985 21.5 13.605 20.8827 15.2363 19.8447C16.8578 18.8127 18 17.2947 18 15.5V15.125C18 14.4288 17.7234 13.7611 17.2312 13.2688C16.7389 12.7766 16.0712 12.5 15.375 12.5H2.625Z" fill="#F8F8F8"/>
</svg>
